#!OML:ASF E:\emotionWalksFemale\Project 1\Capture day 1\Session 1\Female1.ASF
:FULLY-SPECIFIED
:DEGREES
666
root 9.14736 15.3305 -35.4225 -181.855 -15.4513 -178.427
lowerback 9.75912 -2.97117 -0.00128579
upperback -3.20594 -3.86711 1.8799
thorax -8.7574 -1.83479 2.66291
lowerneck -2.27732 -4.5149 -6.4583
upperneck 2.16326 -5.94078 4.51896
head 1.43641 -2.96216 2.43006
rclavicle -1.06598e-014 -1.43125e-014
rhumerus -59.9656 -7.88299 -57.4469
rradius 29.1658
rwrist 24.694
rhand 13.7498 -56.75
rfingers 7.12502
rthumb 38.6736 637.637
lclavicle -1.06598e-014 -1.43125e-014
lhumerus -13.5039 -16.1331 83.7257
lradius 56.9201
lwrist -6.89236
lhand -13.443 -37.1911
lfingers 7.12502
lthumb 12.6662 -7.59514
rfemur -17.6558 24.2503 14.3883
rtibia 29.0225
rfoot -6.32904 -10.9261
rtoes -37.536
lfemur -14.1291 -9.37195 -27.3004
ltibia 33.6009
lfoot -18.3875 18.3578
ltoes 9.2357
667
root 9.16912 15.3013 -35.4879 -181.733 -16.165 -178.427
lowerback 9.58493 -3.03046 -0.124917
upperback -3.12629 -3.96311 1.87645
thorax -8.55739 -1.87827 2.72797
lowerneck -2.44388 -4.76233 -6.65979
upperneck 2.1084 -6.25843 4.71343
head 1.48361 -3.11753 2.51853
rclavicle 3.3197e-014 -3.97569e-016
rhumerus -59.9041 -7.82731 -56.7226
rradius 29.1577
rwrist 24.2012
rhand 14.7201 -57.4202
rfingers 7.12502
rthumb 39.5882 637.231
lclavicle 3.3197e-014 -3.97569e-016
lhumerus -13.0247 -17.0775 83.8201
lradius 58.2333
lwrist -6.40736
lhand -13.785 -37.3841
lfingers 7.12502
lthumb 12.3364 -7.76802
rfemur -17.1149 24.0303 14.4801
rtibia 28.7367
rfoot -6.53373 -11.615
rtoes -39.3598
lfemur -14.2863 -9.222 -27.215
ltibia 34.0497
lfoot -18.9963 17.6755
ltoes 8.1018
668
root 9.19037 15.2795 -35.5556 -181.568 -16.8772 -178.512
lowerback 9.69748 -3.0977 -0.201921
upperback -3.33824 -4.07338 1.70479
thorax -8.85572 -1.92545 2.62565
lowerneck -2.12178 -4.95374 -6.43306
upperneck 2.11837 -6.54577 4.73019
head 1.43864 -3.26364 2.48106
rclavicle 7.25564e-014 -2.34566e-014
rhumerus -60.3096 -7.58288 -56.1644
rradius 29.1898
rwrist 23.7389
rhand 15.681 -57.9953
rfingers 7.12502
rthumb 40.4923 636.929
lclavicle 7.25564e-014 -2.34566e-014
lhumerus -13.0942 -18.39 83.8169
lradius 59.5895
lwrist -5.67001
lhand -14.0096 -37.4318
lfingers 7.12502
lthumb 12.1199 -7.8028
rfemur -16.5074 23.6095 14.5322
rtibia 28.3079
rfoot -7.31515 -12.6477
rtoes -40.8224
lfemur -14.4787 -9.08567 -27.1796
ltibia 34.5268
lfoot -19.9525 16.7409
ltoes 9.88216
669
root 9.2128 15.2582 -35.6212 -181.431 -17.6444 -178.54
lowerback 9.55396 -2.98506 -0.178446
upperback -3.27956 -3.92146 1.66708
thorax -8.71844 -1.85641 2.5343
lowerneck -1.69619 -5.3103 -6.97206
upperneck 1.58459 -7.02861 5.08574
head 1.26078 -3.50649 2.69895
rclavicle 4.77332e-014 2.46493e-014
rhumerus -60.4328 -7.77717 -55.2274
rradius 29.2229
rwrist 23.3077
rhand 15.8954 -58.1464
rfingers 7.12502
rthumb 40.6938 636.841
lclavicle 4.77332e-014 2.46493e-014
lhumerus -12.6061 -19.8992 84.1854
lradius 60.9264
lwrist -4.9467
lhand -13.9496 -37.5525
lfingers 7.12502
lthumb 12.1777 -7.92696
rfemur -15.8386 23.0366 14.6965
rtibia 27.8143
rfoot -7.73799 -13.7108
rtoes -42.43
lfemur -14.6927 -8.90848 -27.0735
ltibia 34.9616
lfoot -20.4522 15.9987
ltoes 10.1384
670
root 9.23617 15.2452 -35.6807 -181.218 -18.3768 -178.639
lowerback 9.58874 -3.02172 -0.387328
upperback -3.32237 -4.00025 1.60879
thorax -8.77193 -1.88287 2.60633
lowerneck -1.95696 -5.65487 -7.06113
upperneck 1.75071 -7.47151 5.03422
head 1.391 -3.72624 2.67476
rclavicle 1.60519e-014 -2.18663e-015
rhumerus -60.3493 -7.7039 -54.6353
rradius 29.2045
rwrist 23.3196
rhand 15.46 -58.1435
rfingers 7.12502
rthumb 40.2845 636.717
lclavicle 1.60519e-014 -2.18663e-015
lhumerus -12.4179 -20.9144 84.238
lradius 62.3633
lwrist -4.35913
lhand -14.0352 -37.7859
lfingers 7.12502
lthumb 12.0952 -8.15546
rfemur -15.3491 22.7013 14.7397
rtibia 27.3187
rfoot -7.82511 -14.7722
rtoes -43.3945
lfemur -14.952 -8.65036 -27.034
ltibia 35.354
lfoot -20.8865 15.2421
ltoes 9.76078
671
root 9.25546 15.2438 -35.7371 -181.088 -19.1647 -178.61
lowerback 9.61058 -3.02537 -0.401303
upperback -3.34727 -4.00787 1.59165
thorax -8.81171 -1.88527 2.59992
lowerneck -1.56788 -5.88514 -7.60151
upperneck 1.26563 -7.79439 5.57925
head 1.24041 -3.88817 2.96334
rclavicle -6.78601e-014 8.94531e-015
rhumerus -60.2612 -7.79009 -53.8316
rradius 29.1674
rwrist 23.9844
rhand 16.0102 -58.9993
rfingers 7.12502
rthumb 40.8017 636.022
lclavicle -6.78601e-014 8.94531e-015
lhumerus -12.2874 -21.9477 84.5146
lradius 63.6788
lwrist -3.97477
lhand -14.5279 -38.1085
lfingers 7.12502
lthumb 11.6201 -8.4507
rfemur -14.91 22.5606 14.9254
rtibia 26.943
rfoot -7.87401 -15.9533
rtoes -44.1712
lfemur -15.1082 -8.63265 -26.8811
ltibia 35.7243
lfoot -21.5225 14.3694
ltoes 11.3472
672
root 9.26805 15.247 -35.7851 -181.069 -20.0788 -178.273
lowerback 9.51776 -3.08063 0.0024638
upperback -3.27009 -4.02658 1.6561
thorax -8.69647 -1.91801 2.43619
lowerneck -1.68587 -6.28994 -8.04777
upperneck 1.09486 -8.31952 5.91174
head 1.28435 -4.14752 3.13826
rclavicle -5.95609e-014 6.95746e-015
rhumerus -59.8579 -7.93363 -53.0726
rradius 28.9534
rwrist 24.7359
rhand 15.2347 -59.0149
rfingers 7.12502
rthumb 40.0725 635.781
lclavicle -5.95609e-014 6.95746e-015
lhumerus -12.1393 -22.7871 84.9352
lradius 64.9394
lwrist -3.65136
lhand -14.9676 -38.3995
lfingers 7.12502
lthumb 11.196 -8.7182
rfemur -14.5231 22.0984 15.4706
rtibia 26.7276
rfoot -7.62568 -16.863
rtoes -45.0553
lfemur -15.317 -8.84129 -26.4387
ltibia 36.1347
lfoot -21.842 13.6253
ltoes 12.3432
673
root 9.27726 15.2505 -35.8203 -180.985 -20.965 -177.979
lowerback 9.88013 -3.22959 0.584658
upperback -3.40565 -4.15282 1.56743
thorax -9.10044 -2.00763 2.07179
lowerneck -1.32648 -6.47815 -8.16515
upperneck 0.615769 -8.59206 6.26201
head 1.11144 -4.2853 3.28862
rclavicle -6.48535e-015 6.16232e-015
rhumerus -59.4648 -7.92547 -52.6842
rradius 28.5438
rwrist 25.0937
rhand 14.046 -58.8858
rfingers 7.12502
rthumb 38.9529 635.581
lclavicle -6.48535e-015 6.16232e-015
lhumerus -12.3971 -23.3853 85.1922
lradius 66.1892
lwrist -3.25081
lhand -14.9276 -38.913
lfingers 7.12502
lthumb 11.2346 -9.2338
rfemur -14.3512 21.2511 15.9467
rtibia 26.6805
rfoot -7.43641 -17.2541
rtoes -44.9731
lfemur -15.6959 -9.02536 -26.0585
ltibia 36.6098
lfoot -21.8737 13.0804
ltoes 11.7653
674
root 9.29859 15.2567 -35.875 -181.028 -21.5821 -177.355
lowerback 9.46242 -3.22307 0.824853
upperback -3.24033 -4.10394 1.88003
thorax -8.67216 -1.9983 2.22374
lowerneck -1.43605 -6.84614 -8.34326
upperneck 0.457704 -9.06144 6.12155
head 1.11768 -4.5176 3.25493
rclavicle 1.02126e-014 -2.00773e-014
rhumerus -58.6618 -8.01553 -51.9453
rradius 28.1437
rwrist 25.68
rhand 12.5665 -58.195
rfingers 7.12502
rthumb 37.5563 635.886
lclavicle 1.02126e-014 -2.00773e-014
lhumerus -12.407 -23.7325 85.7574
lradius 67.2489
lwrist -2.94712
lhand -15.0942 -39.6495
lfingers 7.12502
lthumb 11.0739 -9.96168
rfemur -14.2573 21.0003 16.8066
rtibia 26.6621
rfoot -7.68307 -17.8667
rtoes -43.4711
lfemur -16.151 -9.02384 -25.2496
ltibia 37.1964
lfoot -21.9847 12.482
ltoes 11.4847
675
root 9.30053 15.2586 -35.9149 -180.895 -22.2621 -176.778
lowerback 9.41669 -3.2739 1.60959
upperback -3.24407 -4.07153 1.99109
thorax -8.69961 -2.02515 1.89741
lowerneck -1.885 -7.1724 -8.39424
upperneck 0.448492 -9.46181 6.14339
head 1.22958 -4.71159 3.23881
rclavicle -5.72873e-014 3.57812e-015
rhumerus -57.8605 -8.24881 -51.2923
rradius 27.8415
rwrist 26.7526
rhand 10.9838 -57.6918
rfingers 7.12502
rthumb 36.0588 636.006
lclavicle -5.72873e-014 3.57812e-015
lhumerus -12.5849 -24.223 86.2255
lradius 68.2098
lwrist -2.52257
lhand -15.9121 -40.311
lfingers 7.12502
lthumb 10.2849 -10.5825
rfemur -14.3689 19.9836 17.4289
rtibia 26.6582
rfoot -7.94156 -17.8577
rtoes -42.9436
lfemur -16.7858 -9.08725 -24.6144
ltibia 37.8771
lfoot -22.0321 12.1212
ltoes 10.3238
676
root 9.30058 15.2606 -35.9618 -180.931 -22.865 -176.288
lowerback 9.3727 -3.37594 2.14615
upperback -3.44014 -4.1424 2.04839
thorax -8.92255 -2.09014 1.68061
lowerneck -1.62071 -7.31939 -7.95726
upperneck 0.645096 -9.68215 5.67376
head 1.20917 -4.82693 2.99923
rclavicle 7.55754e-014 7.15625e-015
rhumerus -57.3967 -8.00787 -50.8306
rradius 27.6949
rwrist 28.0352
rhand 9.28882 -57.73
rfingers 7.12502
rthumb 34.4515 635.588
lclavicle 7.55754e-014 7.15625e-015
lhumerus -13.683 -24.4864 86.8363
lradius 69.1524
lwrist -2.00215
lhand -16.6394 -40.9842
lfingers 7.12502
lthumb 9.58328 -11.2222
rfemur -14.2482 18.9024 18.0611
rtibia 26.6569
rfoot -7.78497 -17.7666
rtoes -43.4243
lfemur -17.1524 -9.01339 -24.1342
ltibia 38.5152
lfoot -22.0646 12.1314
ltoes 7.3713
677
root 9.31604 15.26 -35.9884 -181.02 -23.264 -175.731
lowerback 9.56616 -3.35051 2.37094
upperback -3.32551 -4.06041 2.34189
thorax -8.90637 -2.05704 1.86139
lowerneck -1.35665 -7.44339 -8.11989
upperneck -0.0867748 -9.84998 5.8674
head 0.959623 -4.91021 3.1118
rclavicle -4.00303e-014 2.24627e-014
rhumerus -56.0715 -7.99544 -50.4392
rradius 27.4976
rwrist 29.2909
rhand 7.98763 -57.8105
rfingers 7.12502
rthumb 33.2153 635.235
lclavicle -4.00303e-014 2.24627e-014
lhumerus -13.9666 -24.4598 87.4332
lradius 69.8406
lwrist -1.51754
lhand -17.0325 -41.5973
lfingers 7.12502
lthumb 9.20402 -11.8182
rfemur -14.3382 18.1762 18.7669
rtibia 26.7149
rfoot -7.50825 -17.6947
rtoes -42.987
lfemur -17.5928 -8.94455 -23.4895
ltibia 39.0065
lfoot -22.0893 12.1474
ltoes 6.1618
678
root 9.32564 15.2608 -36.0219 -181.05 -23.5876 -175.697
lowerback 9.84401 -3.26969 2.18142
upperback -3.34041 -3.95856 2.46424
thorax -9.06313 -1.99236 2.09987
lowerneck -1.57396 -7.80373 -8.15818
upperneck 0.171711 -10.3144 5.63487
head 1.10315 -5.14111 3.00831
rclavicle -1.91454e-014 2.06736e-014
rhumerus -54.9126 -7.61097 -50.1973
rradius 27.2379
rwrist 30.4633
rhand 6.88269 -57.8476
rfingers 7.12502
rthumb 32.164 634.98
lclavicle -1.91454e-014 2.06736e-014
lhumerus -14.8022 -24.4416 88.2935
lradius 70.4087
lwrist -0.9828
lhand -17.4605 -42.1055
lfingers 7.12502
lthumb 8.79095 -12.3086
rfemur -14.2201 17.6857 18.9573
rtibia 26.7884
rfoot -7.4867 -17.7438
rtoes -42.0429
lfemur -17.6297 -9.03456 -23.4271
ltibia 39.2622
lfoot -22.2768 12.1275
ltoes 6.736
679
root 9.32625 15.264 -36.0617 -181.028 -23.8656 -175.953
lowerback 10.0153 -3.14006 2.026
upperback -3.28851 -3.80118 2.36062
thorax -9.10476 -1.90656 2.05685
lowerneck -1.64146 -8.03584 -8.40138
upperneck 0.246187 -10.6229 5.93314
head 1.19725 -5.29417 3.13446
rclavicle 2.2121e-014 -2.90226e-014
rhumerus -53.9009 -7.85735 -49.6907
rradius 27.0548
rwrist 32.105
rhand 4.69336 -57.7981
rfingers 7.12502
rthumb 30.0775 634.629
lclavicle 2.2121e-014 -2.90226e-014
lhumerus -15.6374 -24.7495 89.0208
lradius 70.8791
lwrist -0.348948
lhand -17.7995 -42.6021
lfingers 7.12502
lthumb 8.46383 -12.7917
rfemur -13.986 17.3454 18.8388
rtibia 26.9364
rfoot -7.65298 -17.8112
rtoes -41.1003
lfemur -17.3968 -9.10833 -23.719
ltibia 39.2893
lfoot -22.5826 12.0733
ltoes 7.72056
